<svg xmlns="http://www.w3.org/2000/svg" viewBox="0 0 512 512">
  <rect width="512" height="512" fill="#09090b" rx="114" />
  <path d="M256 128C185.3 128 128 185.3 128 256C128 326.7 185.3 384 256 384C326.7 384 384 326.7 384 256C384 223 371.4 193 350.5 170.8C356 178.6 359 188.1 359 198C359 224.5 337.5 246 311 246C291.5 246 274.6 234.3 266.6 217.4C265 214.5 264.1 211.3 264.1 208C264.1 190.3 278.4 176 296.1 176C302.3 176 308.2 177.8 313.2 180.8C296 148.8 277 128 256 128Z" fill="#a1a1aa" />
  <path d="M384 320C384 346.5 362.5 368 336 368L176 368C140.7 368 112 339.3 112 304C112 268.7 140.7 240 176 240C181.7 240 187.2 240.8 192.5 242.2C204.6 211.3 234.5 189 269 189C311.5 189 346.4 223.1 347.9 265.4C368.6 270.8 384 289.4 384 311.6V320Z" fill="#3b82f6" opacity="0.8" />
</svg>
